<svg xmlns="http://www.w3.org/2000/svg" width="1200" height="630" viewBox="0 0 1200 630" role="img" aria-labelledby="title description">
  <title id="title">Nasrul Huda, AI/ML Engineer</title>
  <desc id="description">Social preview for nasrul.info with an editorial layout and a neural network diagram.</desc>

  <rect width="1200" height="630" fill="#fafaf9" />
  <rect x="28.5" y="28.5" width="1143" height="573" rx="3" fill="none" stroke="#d6d3d1" />

  <g font-family="Helvetica Neue, Helvetica, Arial, sans-serif">
    <g fill="#1c1917">
      <rect x="76" y="76" width="11" height="11" />
      <text x="102" y="87" font-size="15" font-weight="500" letter-spacing="2.8">NASRUL.INFO</text>
    </g>

    <text x="76" y="282" fill="#1c1917" font-size="80" font-weight="500" letter-spacing="-3.2">Nasrul Huda</text>
    <text x="79" y="343" fill="#57534e" font-size="32" font-weight="400" letter-spacing="-0.7">AI/ML Engineer</text>

    <g fill="#78716c" font-size="13" font-weight="500" letter-spacing="2">
      <text x="78" y="552">HAMBURG, DE</text>
      <text x="624" y="552" text-anchor="end">BUILDING INTELLIGENT SYSTEMS</text>
    </g>
  </g>

  <line x1="696.5" y1="76" x2="696.5" y2="554" stroke="#d6d3d1" />

  <g fill="none" stroke="#a8a29e" stroke-width="1.25" opacity="0.72">
    <path d="M790 190 920 230M790 190 920 315M790 190 920 400" />
    <path d="M790 273 920 230M790 273 920 315M790 273 920 400" />
    <path d="M790 356 920 230M790 356 920 315M790 356 920 400" />
    <path d="M790 439 920 230M790 439 920 315M790 439 920 400" />
    <path d="M920 230 1050 273M920 230 1050 356" />
    <path d="M920 315 1050 273M920 315 1050 356" />
    <path d="M920 400 1050 273M920 400 1050 356" />
    <path d="M1050 273 1123 315M1050 356 1123 315" />
  </g>

  <g fill="#fafaf9" stroke="#1c1917" stroke-width="2">
    <circle cx="790" cy="190" r="8" />
    <circle cx="790" cy="273" r="8" />
    <circle cx="790" cy="356" r="8" />
    <circle cx="790" cy="439" r="8" />
    <circle cx="920" cy="230" r="8" />
    <circle cx="920" cy="315" r="8" />
    <circle cx="920" cy="400" r="8" />
    <circle cx="1050" cy="273" r="8" />
    <circle cx="1050" cy="356" r="8" />
  </g>

  <g fill="#1c1917">
    <circle cx="790" cy="273" r="4" />
    <circle cx="920" cy="315" r="4" />
    <circle cx="1050" cy="356" r="4" />
    <circle cx="1123" cy="315" r="9" />
  </g>

  <g fill="#78716c" font-family="SFMono-Regular, Consolas, Liberation Mono, monospace" font-size="11" letter-spacing="1.4">
    <text x="774" y="150">INPUT</text>
    <text x="896" y="190">HIDDEN</text>
    <text x="1074" y="294">OUTPUT</text>
    <text x="1087" y="87">01 / PROFILE</text>
  </g>

  <path d="M1103 552h20v-20" fill="none" stroke="#1c1917" stroke-width="2" />
</svg>
